<?xml version="1.0" encoding="UTF-8" standalone="no"?>
<!-- Created with Inkscape (http://www.inkscape.org/) -->

<svg
   width="8.0107603mm"
   height="10.626171mm"
   viewBox="0 0 8.0107603 10.626171"
   version="1.1"
   id="svg5"
   xml:space="preserve"
   inkscape:version="1.2 (dc2aedaf03, 2022-05-15)"
   sodipodi:docname="icon.svg"
   xmlns:inkscape="http://www.inkscape.org/namespaces/inkscape"
   xmlns:sodipodi="http://sodipodi.sourceforge.net/DTD/sodipodi-0.dtd"
   xmlns="http://www.w3.org/2000/svg"
   xmlns:svg="http://www.w3.org/2000/svg"><sodipodi:namedview
     id="namedview7"
     pagecolor="#ffffff"
     bordercolor="#000000"
     borderopacity="0.25"
     inkscape:showpageshadow="2"
     inkscape:pageopacity="0.0"
     inkscape:pagecheckerboard="0"
     inkscape:deskcolor="#d1d1d1"
     inkscape:document-units="mm"
     showgrid="false"
     inkscape:zoom="4.3036693"
     inkscape:cx="-57.741425"
     inkscape:cy="-6.0413564"
     inkscape:window-width="1920"
     inkscape:window-height="1009"
     inkscape:window-x="1353"
     inkscape:window-y="1432"
     inkscape:window-maximized="1"
     inkscape:current-layer="layer1" /><defs
     id="defs2" /><g
     inkscape:label="Layer 1"
     inkscape:groupmode="layer"
     id="layer1"
     transform="translate(-100.40122,-143.18692)"><path
       style="fill:#165573;fill-opacity:1;stroke-width:0.264583"
       d="m 102.34605,150.81189 c 0.87313,-1.29852 1.42448,-2.2317 1.42448,-2.31281 -0.31517,0.0711 -0.26221,-6.9e-4 -0.66239,0.0989 -0.65594,0.16338 -0.64125,-0.23923 -0.27754,-0.69426 0.22554,-0.28217 0.57602,-0.0734 1.31363,-0.21176 0.45104,-0.47585 0.67953,-0.93172 1.73023,-2.2773 0.97304,-1.24611 1.85163,-2.27184 1.89267,-2.22628 0.041,0.0456 -0.052,1.29521 0.0191,2.75042 0.018,0.36931 -0.0164,1.00437 0.0194,1.48452 0.83467,0.34874 0.0462,0.68021 0.0462,0.68021 0,0 0.082,0.71331 0.20324,0.7811 0.49809,0.27852 0.46183,0.86513 -0.0276,0.99555 -0.24141,0.0643 -0.84024,-0.34597 -0.97648,-0.80462 -0.14338,-0.48271 -0.15894,-0.85669 -0.17184,-0.85927 -0.88433,0.0874 -1.40147,0.10085 -2.18775,0.16346 0,0 -0.64321,0.89449 -1.68692,2.50876 -1.06501,1.53841 -1.55057,2.23739 -1.90947,2.71404 -0.18204,0.13497 -0.36545,0.18387 -0.6564,0.21027 -0.27149,0.0246 0.99373,-1.63943 1.90752,-3.00094 z m 4.48226,-3.32032 c 0,0 -0.0172,-0.23639 -0.0403,-1.268 -0.0147,-0.65559 0.0655,-1.04467 0.008,-1.11747 -0.0749,-0.0946 -0.51897,0.63982 -1.01223,1.29336 -0.45604,0.6538 -0.82309,1.0519 -0.74624,1.17009 0.60642,-0.01 1.16992,-0.0324 1.79092,-0.078 z"
       id="path1529"
       sodipodi:nodetypes="cccscscsccsssccccscccsscccc" /><path
       style="fill:#79182f;fill-opacity:1;stroke-width:0.264583"
       d="m 102.64106,151.95256 c 1.9938,-0.56131 2.87366,-0.87309 5.74153,-1.11796 0.004,0.10735 0.0111,0.2054 9.4e-4,0.35591 -2.97116,0.53799 -3.79676,0.93913 -6.57584,2.10361 0.43694,-0.7051 0.57391,-0.92004 0.8334,-1.34156 z"
       id="path1529-8"
       sodipodi:nodetypes="cccccc" /></g></svg>
