<?xml version="1.0" encoding="UTF-8" standalone="no"?>
<svg
   xmlns:dc="http://purl.org/dc/elements/1.1/"
   xmlns:cc="http://creativecommons.org/ns#"
   xmlns:rdf="http://www.w3.org/1999/02/22-rdf-syntax-ns#"
   xmlns:svg="http://www.w3.org/2000/svg"
   xmlns="http://www.w3.org/2000/svg"
   xmlns:sodipodi="http://sodipodi.sourceforge.net/DTD/sodipodi-0.dtd"
   xmlns:inkscape="http://www.inkscape.org/namespaces/inkscape"
   id="Layer_1"
   data-name="Layer 1"
   viewBox="0 0 255 145"
   version="1.1"
   sodipodi:docname="eNQue.svg"
   inkscape:version="1.0.2-2 (e86c870879, 2021-01-15)"
   width="255"
   height="145"
   inkscape:export-filename="C:\Users\brian\Code\nq\static\images\eNQue.png"
   inkscape:export-xdpi="96"
   inkscape:export-ydpi="96">
  <metadata
     id="metadata15">
    <rdf:RDF>
      <cc:Work
         rdf:about="">
        <dc:format>image/svg+xml</dc:format>
        <dc:type
           rdf:resource="http://purl.org/dc/dcmitype/StillImage" />
        <dc:title></dc:title>
      </cc:Work>
    </rdf:RDF>
  </metadata>
  <sodipodi:namedview
     pagecolor="#ffffff"
     bordercolor="#666666"
     borderopacity="1"
     objecttolerance="10"
     gridtolerance="10"
     guidetolerance="10"
     inkscape:pageopacity="0"
     inkscape:pageshadow="2"
     inkscape:window-width="1920"
     inkscape:window-height="1013"
     id="namedview13"
     showgrid="false"
     inkscape:zoom="4.5254834"
     inkscape:cx="140.27609"
     inkscape:cy="82.095064"
     inkscape:window-x="-9"
     inkscape:window-y="-9"
     inkscape:window-maximized="1"
     inkscape:current-layer="g78"
     inkscape:document-rotation="0"
     fit-margin-top="0"
     fit-margin-left="0"
     fit-margin-right="0"
     fit-margin-bottom="0" />
  <defs
     id="defs4">
    <style
       id="style2">.cls-1{font-size:76.63px;font-family:LivingstonDemoSerif, Livingston Demo;}</style>
    <filter
       style="color-interpolation-filters:sRGB;"
       inkscape:label="Drop Shadow"
       id="filter966">
      <feFlood
         flood-opacity="0.498039"
         flood-color="rgb(0,0,0)"
         result="flood"
         id="feFlood956" />
      <feComposite
         in="flood"
         in2="SourceGraphic"
         operator="in"
         result="composite1"
         id="feComposite958" />
      <feGaussianBlur
         in="composite1"
         stdDeviation="7"
         result="blur"
         id="feGaussianBlur960" />
      <feOffset
         dx="0"
         dy="0"
         result="offset"
         id="feOffset962" />
      <feComposite
         in="SourceGraphic"
         in2="offset"
         operator="over"
         result="composite2"
         id="feComposite964" />
    </filter>
    <filter
       style="color-interpolation-filters:sRGB;"
       inkscape:label="Drop Shadow"
       id="filter978">
      <feFlood
         flood-opacity="0.498039"
         flood-color="rgb(0,0,0)"
         result="flood"
         id="feFlood968" />
      <feComposite
         in="flood"
         in2="SourceGraphic"
         operator="in"
         result="composite1"
         id="feComposite970" />
      <feGaussianBlur
         in="composite1"
         stdDeviation="7"
         result="blur"
         id="feGaussianBlur972" />
      <feOffset
         dx="0"
         dy="0"
         result="offset"
         id="feOffset974" />
      <feComposite
         in="SourceGraphic"
         in2="offset"
         operator="over"
         result="composite2"
         id="feComposite976" />
    </filter>
    <filter
       style="color-interpolation-filters:sRGB;"
       inkscape:label="Drop Shadow"
       id="filter990">
      <feFlood
         flood-opacity="0.498039"
         flood-color="rgb(0,0,0)"
         result="flood"
         id="feFlood980" />
      <feComposite
         in="flood"
         in2="SourceGraphic"
         operator="in"
         result="composite1"
         id="feComposite982" />
      <feGaussianBlur
         in="composite1"
         stdDeviation="7"
         result="blur"
         id="feGaussianBlur984" />
      <feOffset
         dx="0"
         dy="0"
         result="offset"
         id="feOffset986" />
      <feComposite
         in="SourceGraphic"
         in2="offset"
         operator="over"
         result="composite2"
         id="feComposite988" />
    </filter>
    <filter
       style="color-interpolation-filters:sRGB;"
       inkscape:label="Drop Shadow"
       id="filter1002">
      <feFlood
         flood-opacity="0.498039"
         flood-color="rgb(0,0,0)"
         result="flood"
         id="feFlood992" />
      <feComposite
         in="flood"
         in2="SourceGraphic"
         operator="in"
         result="composite1"
         id="feComposite994" />
      <feGaussianBlur
         in="composite1"
         stdDeviation="7"
         result="blur"
         id="feGaussianBlur996" />
      <feOffset
         dx="0"
         dy="0"
         result="offset"
         id="feOffset998" />
      <feComposite
         in="SourceGraphic"
         in2="offset"
         operator="over"
         result="composite2"
         id="feComposite1000" />
    </filter>
    <filter
       style="color-interpolation-filters:sRGB;"
       inkscape:label="Drop Shadow"
       id="filter1014">
      <feFlood
         flood-opacity="0.498039"
         flood-color="rgb(0,0,0)"
         result="flood"
         id="feFlood1004" />
      <feComposite
         in="flood"
         in2="SourceGraphic"
         operator="in"
         result="composite1"
         id="feComposite1006" />
      <feGaussianBlur
         in="composite1"
         stdDeviation="7"
         result="blur"
         id="feGaussianBlur1008" />
      <feOffset
         dx="0"
         dy="0"
         result="offset"
         id="feOffset1010" />
      <feComposite
         in="SourceGraphic"
         in2="offset"
         operator="over"
         result="composite2"
         id="feComposite1012" />
    </filter>
    <filter
       style="color-interpolation-filters:sRGB;"
       inkscape:label="Drop Shadow"
       id="filter1026">
      <feFlood
         flood-opacity="0.498039"
         flood-color="rgb(0,0,0)"
         result="flood"
         id="feFlood1016" />
      <feComposite
         in="flood"
         in2="SourceGraphic"
         operator="in"
         result="composite1"
         id="feComposite1018" />
      <feGaussianBlur
         in="composite1"
         stdDeviation="7"
         result="blur"
         id="feGaussianBlur1020" />
      <feOffset
         dx="0"
         dy="0"
         result="offset"
         id="feOffset1022" />
      <feComposite
         in="SourceGraphic"
         in2="offset"
         operator="over"
         result="composite2"
         id="feComposite1024" />
    </filter>
    <filter
       style="color-interpolation-filters:sRGB;"
       inkscape:label="Drop Shadow"
       id="filter1038">
      <feFlood
         flood-opacity="0.498039"
         flood-color="rgb(0,0,0)"
         result="flood"
         id="feFlood1028" />
      <feComposite
         in="flood"
         in2="SourceGraphic"
         operator="in"
         result="composite1"
         id="feComposite1030" />
      <feGaussianBlur
         in="composite1"
         stdDeviation="7"
         result="blur"
         id="feGaussianBlur1032" />
      <feOffset
         dx="0"
         dy="0"
         result="offset"
         id="feOffset1034" />
      <feComposite
         in="SourceGraphic"
         in2="offset"
         operator="over"
         result="composite2"
         id="feComposite1036" />
    </filter>
  </defs>
  <g
     id="g78"
     transform="translate(2.0184952,1.3960931)">
    <path
       d="m 30.345479,129.17446 h 8.12278 v 2.60542 h -2.60542 q -2.52879,4.36791 -6.97333,6.97333 -4.44454,2.60542 -9.65538,2.60542 -7.969519,0 -13.6401392,-5.59399 Q 2.6702881e-8,130.09402 2.6702881e-8,122.1245 q 0,-7.96952 5.59398977329712,-13.56351 5.6706202,-5.67062 13.6401392,-5.67062 7.96952,0 13.56351,5.67062 5.67062,5.59399 5.67062,13.56351 0,0.38315 -0.07663,1.30271 H 6.2836598 q 0.45978,6.28366 4.6744302,10.65157 4.291279,4.29128 10.038529,4.29128 3.60161,0 6.66681,-1.76249 3.14183,-1.76249 5.21084,-4.82769 h -2.52879 z m -9.34886,-23.29552 q -3.8315,0 -7.126589,1.99238 -3.21846,1.99238 -5.2874703,5.44073 -1.9923799,3.37172 -2.2988999,7.50974 H 35.786209 q -0.45978,-6.28366 -4.75106,-10.57494 -4.21465,-4.36791 -10.03853,-4.36791 z"
       style="font-size:76.63px;font-family:LivingstonDemoSerif, 'Livingston Demo';fill:#bc07bc;fill-opacity:1;stroke-width:0.999;filter:url(#filter966)"
       id="path837" />
    <path
       d="m 83.066876,72.928041 h 12.18417 v 2.68205 h -2.98857 v 65.518649 h -6.20703 L 52.108358,78.368771 v 60.154549 h 2.988569 v 2.60542 H 42.912758 v -2.60542 h 2.98857 V 72.928041 h 6.20703 v 0 L 86.055446,135.68801 V 75.610091 h -2.98857 z"
       style="font-size:76.63px;font-family:LivingstonDemoSerif, 'Livingston Demo';fill:#808080;stroke-width:0.999;filter:url(#filter978)"
       id="path839" />
    <path
       d="m 161.53587,137.60376 v -5.13421 h 2.60542 v 9.73201 q -7.73963,0.15326 -13.64014,-3.44835 -0.84293,-0.45978 -2.2989,-1.60923 0,0.0766 -0.0766,0.0766 0,0 0,0 -4.21465,2.75868 -8.96571,3.90813 -3.52498,0.91956 -7.35648,0.91956 -3.75487,0 -7.27985,-0.91956 -1.5326,-0.38315 -3.29508,-0.99619 -1.5326,-0.61304 -2.98857,-1.37934 -8.4293,-4.21465 -13.56351,-12.72058 -5.134214,-8.58256 -5.134214,-19.00424 0,-9.50212 4.291284,-17.54827 4.36791,-8.122779 11.80102,-12.797209 7.4331,-4.67443 16.24555,-4.67443 6.51355,0 12.49069,2.83531 6.05377,2.75868 10.34505,7.43311 4.29128,4.674429 6.82007,11.187979 2.60542,6.43692 2.60542,13.56351 0,5.28747 -1.37934,10.26842 -1.37934,4.90432 -3.98476,9.04234 -2.52879,4.13802 -6.05377,7.43311 -0.15326,0.15326 -0.61304,0.53641 -0.38315,0.30652 -0.45978,0.30652 0.15326,0.0766 0.45978,0.30652 0.30652,0.22989 0.53641,0.30652 3.90813,2.14564 8.88908,2.37553 z m -17.6249,-1.91575 q 0.0766,0 1.60923,-0.7663 -4.13802,-3.67824 -5.74725,-4.67443 -2.60542,-1.76249 -5.90051,-2.22227 -3.21846,-0.53641 -6.28366,0.22989 -4.52117,1.14945 -8.42929,4.90432 1.83912,1.22608 3.67824,2.14564 2.14563,0.91956 4.21464,1.5326 3.44835,0.91956 6.8967,0.91956 5.13421,0 9.9619,-2.06901 z m 5.82388,-3.21846 q 5.67062,-4.21465 8.96571,-10.88146 3.37172,-6.74344 3.37172,-14.5597 0,-8.35267 -3.75487,-15.40263 -3.75487,-7.04996 -10.26842,-11.111349 -6.43692,-4.13802 -14.09992,-4.13802 -7.663,0 -14.17654,4.13802 -6.51355,4.061389 -10.26842,11.111349 -3.75487,7.04996 -3.75487,15.40263 0,7.35648 2.98857,13.7934 2.98857,6.43692 8.19941,10.7282 4.36791,-4.67443 9.96189,-6.28366 3.14183,-0.99619 7.50974,-0.61304 3.67824,0.38315 7.35648,2.52879 1.83912,1.14945 5.74725,4.36791 0.30652,0.30652 1.60923,1.30271 0.0766,-0.0766 0.30652,-0.15326 0.22989,-0.15326 0.30652,-0.22989 z"
       style="font-size:76.63px;font-family:LivingstonDemoSerif, 'Livingston Demo';fill:#808080;stroke-width:0.999;filter:url(#filter990)"
       id="path841" />
    <path
       d="m 197.7052,103.12026 h 10.42168 v 2.60542 h -3.8315 v 18.62109 q 0,6.8967 -4.98095,11.87765 -4.90432,4.90432 -11.87765,4.90432 -6.97333,0 -11.87765,-4.90432 -4.90432,-4.98095 -4.90432,-11.87765 v -18.62109 h -2.14564 v -2.60542 h 10.42168 v 2.60542 h -2.06901 v 19.08087 q 0,3.37172 1.60923,6.20703 1.68586,2.83531 4.52117,4.52117 2.91194,1.68586 6.28366,1.68586 5.05758,0 8.65919,-3.60161 3.67824,-3.67824 3.67824,-8.81245 v -19.08087 h -3.90813 z"
       style="font-size:76.63px;font-family:LivingstonDemoSerif, 'Livingston Demo';fill:#bc07bc;fill-opacity:1;stroke-width:0.999;filter:url(#filter1026)"
       id="path843" />
    <path
       d="m 242.84023,129.17446 h 8.12278 v 2.60542 h -2.60542 q -2.52879,4.36791 -6.97333,6.97333 -4.44454,2.60542 -9.65538,2.60542 -7.96952,0 -13.64014,-5.59399 -5.59399,-5.67062 -5.59399,-13.64014 0,-7.96952 5.59399,-13.56351 5.67062,-5.67062 13.64014,-5.67062 7.96952,0 13.56351,5.67062 5.67062,5.59399 5.67062,13.56351 0,0.38315 -0.0766,1.30271 h -32.10797 q 0.45978,6.28366 4.67443,10.65157 4.29128,4.29128 10.03853,4.29128 3.60161,0 6.66681,-1.76249 3.14183,-1.76249 5.21084,-4.82769 h -2.52879 z m -9.34886,-23.29552 q -3.8315,0 -7.12659,1.99238 -3.21846,1.99238 -5.28747,5.44073 -1.99238,3.37172 -2.2989,7.50974 h 29.50255 q -0.45978,-6.28366 -4.75106,-10.57494 -4.21465,-4.36791 -10.03853,-4.36791 z"
       style="font-size:76.63px;font-family:LivingstonDemoSerif, 'Livingston Demo';fill:#bc07bc;fill-opacity:1;stroke-width:0.999;filter:url(#filter1038)"
       id="path845" />
    <path
       d="m 131.50058,55.33461 c 1.0989,-0.51948 2.17782,-1.06893 3.28671,-1.55844 11.66832,-5.17482 24.83514,-2.45754 33.966,6.47352 7.77222,7.62237 6.87312,22.32765 1.25874,28.62135 -0.18981,0.21978 -0.53946,0.2997 -1.08891,0.58941 0.30969,-1.64835 0.58941,-3.12687 0.84915,-4.60539 a 22.977,22.977 0 1 0 -45.53442,-4.67532 33.80616,33.80616 0 0 0 8.41158,23.86611 c 4.32567,5.06493 9.56043,9.0909 14.7852,13.12686 a 49.8501,49.8501 0 0 1 5.994,4.93506 c -1.998,0.67932 -3.45654,0.12987 -4.92507,-0.26973 a 42.09786,42.09786 0 0 1 -31.25871,-42.04791 65.61432,65.61432 0 0 1 7.64235,-28.89108 114.53535,114.53535 0 0 1 11.92806,-18.0819 c 3.38661,-4.32567 6.87312,-8.5914 10.26972,-12.91707 4.2957,-5.46453 8.27172,-11.10888 9.62037,-18.15183 0.0999,-0.53946 0.60939,-0.999 1.06893,-1.74825 a 20.56941,20.56941 0 0 1 -0.999,17.1828 63.30663,63.30663 0 0 1 -6.0939,9.4905 c -3.65634,4.91508 -7.64235,9.5904 -11.33865,14.4855 -3.20679,4.25574 -6.20379,8.67132 -7.84215,14.17581 z"
       id="path8"
       style="fill:#bc07bc;stroke-width:0.999;fill-opacity:1;filter:url(#filter1002)"
       inkscape:export-xdpi="96"
       inkscape:export-ydpi="96" />
    <path
       d="m 159.47258,46.12383 a 6.77322,6.77322 0 1 1 6.68331,-6.91308 6.67332,6.67332 0 0 1 -6.68331,6.91308 z"
       id="path10"
       style="fill:#bc07bc;stroke-width:0.999;fill-opacity:1;filter:url(#filter1014)"
       inkscape:export-xdpi="96"
       inkscape:export-ydpi="96" />
  </g>
</svg>
