<?xml version="1.0" encoding="UTF-8" standalone="no"?>
<svg
   xmlns:dc="http://purl.org/dc/elements/1.1/"
   xmlns:cc="http://creativecommons.org/ns#"
   xmlns:rdf="http://www.w3.org/1999/02/22-rdf-syntax-ns#"
   xmlns:svg="http://www.w3.org/2000/svg"
   xmlns="http://www.w3.org/2000/svg"
   xmlns:sodipodi="http://sodipodi.sourceforge.net/DTD/sodipodi-0.dtd"
   xmlns:inkscape="http://www.inkscape.org/namespaces/inkscape"
   id="Layer_1"
   data-name="Layer 1"
   viewBox="0 0 128 128"
   version="1.1"
   sodipodi:docname="favicon.svg"
   inkscape:version="1.0.2-2 (e86c870879, 2021-01-15)"
   width="128"
   height="128"
   inkscape:export-filename="C:\Users\brian\Code\nq\static\favicon.png"
   inkscape:export-xdpi="96"
   inkscape:export-ydpi="96">
  <metadata
     id="metadata15">
    <rdf:RDF>
      <cc:Work
         rdf:about="">
        <dc:format>image/svg+xml</dc:format>
        <dc:type
           rdf:resource="http://purl.org/dc/dcmitype/StillImage" />
        <dc:title></dc:title>
      </cc:Work>
    </rdf:RDF>
  </metadata>
  <sodipodi:namedview
     pagecolor="#ffffff"
     bordercolor="#666666"
     borderopacity="1"
     objecttolerance="10"
     gridtolerance="10"
     guidetolerance="10"
     inkscape:pageopacity="0"
     inkscape:pageshadow="2"
     inkscape:window-width="4300"
     inkscape:window-height="1734"
     id="namedview13"
     showgrid="false"
     inkscape:zoom="4.5254834"
     inkscape:cx="140.27609"
     inkscape:cy="82.095064"
     inkscape:window-x="-9"
     inkscape:window-y="-9"
     inkscape:window-maximized="1"
     inkscape:current-layer="g78"
     inkscape:document-rotation="0"
     fit-margin-top="0"
     fit-margin-left="0"
     fit-margin-right="0"
     fit-margin-bottom="0"
     width="49px" />
  <defs
     id="defs4">
    <style
       id="style2">.cls-1{font-size:76.63px;font-family:LivingstonDemoSerif, Livingston Demo;}</style>
  </defs>
  <g
     id="g78"
     transform="translate(2.0184952,1.3960931)">
    <g
       id="g942"
       transform="translate(-28.599854,-0.51461198)">
      <path
         d="m 75.724642,57.015222 c 1.140679,-0.53923 2.260618,-1.109568 3.411667,-1.61769 12.111933,-5.371559 25.779341,-2.550972 35.257341,6.719635 8.0677,7.912163 7.13443,23.176517 1.3066,29.709495 -0.19703,0.228136 -0.55997,0.311093 -1.13031,0.611819 0.32146,-1.711018 0.61182,-3.245751 0.88143,-4.780481 A 23.850554,23.850554 0 1 0 68.185793,82.80493 35.091423,35.091423 0 0 0 76.91717,107.5784 c 4.490126,5.25749 9.923905,9.43652 15.347313,13.62592 a 51.745333,51.745333 0 0 1 6.221889,5.12269 c -2.073966,0.70514 -3.587958,0.1348 -5.112319,-0.27999 A 43.698363,43.698363 0 0 1 60.926929,82.400508 68.108887,68.108887 0 0 1 68.859831,52.411028 118.88983,118.88983 0 0 1 81.241379,33.64168 c 3.515364,-4.490127 7.134427,-8.918034 10.660161,-13.40816 4.459017,-5.672284 8.5862,-11.5312243 9.98613,-18.8419377 0.10364,-0.55996953 0.63255,-1.03698061 1.10956,-1.81471607 a 21.35143,21.35143 0 0 1 -1.03698,17.83606677 65.713462,65.713462 0 0 1 -6.32558,9.851316 c -3.795349,5.101945 -7.932902,9.955014 -11.76973,15.036218 -3.328708,4.417538 -6.439649,9.000992 -8.140298,14.714755 z"
         id="path8"
         style="fill:#bc07bc;fill-opacity:1;stroke-width:1.03698"
         inkscape:export-xdpi="96"
         inkscape:export-ydpi="96" />
      <path
         d="m 107.0238,40.461377 a 6.0038333,6.0038333 0 1 1 5.92414,-6.127806 5.9152812,5.9152812 0 0 1 -5.92414,6.127806 z"
         id="path10"
         style="fill:#bc07bc;fill-opacity:1;stroke-width:0.885521"
         inkscape:export-xdpi="96"
         inkscape:export-ydpi="96" />
    </g>
  </g>
</svg>
