<?xml version="1.0" encoding="UTF-8" standalone="no"?>
<svg
   width="300"
   height="180"
   data-name="Layer 1"
   version="1.1"
   viewBox="0 0 300 180"
   id="svg48"
   sodipodi:docname="new-eNQue.svg"
   inkscape:version="1.2 (dc2aedaf03, 2022-05-15)"
   xmlns:inkscape="http://www.inkscape.org/namespaces/inkscape"
   xmlns:sodipodi="http://sodipodi.sourceforge.net/DTD/sodipodi-0.dtd"
   xmlns="http://www.w3.org/2000/svg"
   xmlns:svg="http://www.w3.org/2000/svg">
  <sodipodi:namedview
     id="namedview50"
     pagecolor="#ffffff"
     bordercolor="#000000"
     borderopacity="0.25"
     inkscape:showpageshadow="2"
     inkscape:pageopacity="0.0"
     inkscape:pagecheckerboard="0"
     inkscape:deskcolor="#d1d1d1"
     showgrid="false"
     inkscape:zoom="1.4259987"
     inkscape:cx="46.633984"
     inkscape:cy="-91.16418"
     inkscape:window-width="3440"
     inkscape:window-height="1369"
     inkscape:window-x="-8"
     inkscape:window-y="-8"
     inkscape:window-maximized="1"
     inkscape:current-layer="svg48" />
  <defs
     id="defs26">
    <style
       id="style2">.cls-1{font-size:76.63px;font-family:LivingstonDemoSerif, Livingston Demo;}</style>
    <filter
       id="filter1002"
       x="-0.29934699"
       y="-0.13758312"
       width="1.598694"
       height="1.2751662"
       color-interpolation-filters="sRGB">
      <feFlood
         flood-color="rgb(0,0,0)"
         flood-opacity=".49804"
         result="flood"
         id="feFlood4" />
      <feComposite
         in="flood"
         in2="SourceGraphic"
         operator="in"
         result="composite1"
         id="feComposite6" />
      <feGaussianBlur
         in="composite1"
         result="blur"
         stdDeviation="7"
         id="feGaussianBlur8" />
      <feOffset
         dx="0"
         dy="0"
         result="offset"
         id="feOffset10" />
      <feComposite
         in="SourceGraphic"
         in2="offset"
         result="composite2"
         id="feComposite12" />
    </filter>
    <filter
       id="filter1014"
       x="-1.2399207"
       y="-1.2401819"
       width="3.4798414"
       height="3.4803638"
       color-interpolation-filters="sRGB">
      <feFlood
         flood-color="rgb(0,0,0)"
         flood-opacity=".49804"
         result="flood"
         id="feFlood15" />
      <feComposite
         in="flood"
         in2="SourceGraphic"
         operator="in"
         result="composite1"
         id="feComposite17" />
      <feGaussianBlur
         in="composite1"
         result="blur"
         stdDeviation="7"
         id="feGaussianBlur19" />
      <feOffset
         dx="0"
         dy="0"
         result="offset"
         id="feOffset21" />
      <feComposite
         in="SourceGraphic"
         in2="offset"
         result="composite2"
         id="feComposite23" />
    </filter>
  </defs>
  <text
     x="55.625282"
     y="225.3125"
     fill="#666666"
     font-family="'Poor Richard'"
     font-size="74.667px"
     xml:space="preserve"
     id="text28" />
  <g
     id="g1064"
     transform="translate(2.3506481)">
    <g
       id="g1053">
      <path
         d="m 227.68332,129.24555 c 0.0431,5.44928 -0.0444,6.25148 -0.35318,12.57148 -0.12167,1.648 -1.9731,3.784 -5.3161,6.0291 -2.1598,1.4505 -3.8227,2.2531 -5.8594,2.2833 -3.83844,-0.32097 -8.2028,-3.53696 -8.30217,-6.48007 0.0416,-15.51862 1.63239,-23.55768 -7.40108,-26.47237 0.0112,10.19616 0.11044,14.27353 0.13507,27.09895 0.27531,6.33324 5.42722,10.62976 10.94669,10.69499 3.4478,0 6.5288,-0.78859 9.2431,-2.3658 1.0771,-0.68055 2.1481,-1.3862 3.0879,-2.0449 1.3954,-1.0035 2.1472,-1.7879 3.4929,-2.9914 1.33047,5.45668 4.66907,6.84067 8.15912,7.24294 -0.1607,-13.47782 0.13105,-14.81453 0.2171,-25.94268 0.0742,-9.58918 -0.46729,-12.07486 -4.09038,-12.08066 -3.62309,-0.006 -4.04623,1.50909 -3.95957,12.45712 z"
         stroke-width="1.1737"
         id="path32"
         sodipodi:nodetypes="scscccccccccszs"
         style="fill:#bc07bc" />
      <path
         d="m 29.857,115.91472 c -10.562,2.23 -18.496869,11.1095 -18.318,21.663 0.178869,10.5535 10.592516,17.59046 21.816811,17.39315 11.224295,-0.19731 15.373514,-6.32084 19.008215,-11.78569 -6.48414,-1.43028 -6.183528,1.70088 -11.348109,4.74175 -8.397103,4.94416 -18.007963,1.49936 -20.786963,-8.70914 10.450615,-1.86046 13.692099,-2.445 23.280046,-3.85317 4.5391,-0.74142 10.311,-1.4075 9.5344,-5.9755 -1.550295,-10.50345 -13.995,-14.854 -23.187,-13.474 z m 0.98841,4.8738 c 5.841,-0.84599 11.904349,1.43886 13.857855,7.16389 0.23771,1.5306 -0.861385,2.67701 -2.000755,2.89001 -8.299834,1.34134 -13.009073,2.10498 -23.248704,3.6012 1.234201,-9.061 5.241187,-12.37522 11.391704,-13.6551 z"
         stroke-width="1.0928"
         id="path34"
         sodipodi:nodetypes="czzcsccccccccccc"
         style="fill:#bc07bc" />
      <path
         d="m 260.50548,115.91472 c -10.562,2.23 -18.49686,11.1095 -18.318,21.663 0.17887,10.5535 10.32955,17.41514 21.81682,17.39315 11.48726,-0.022 15.37351,-6.32084 19.00821,-11.78569 -6.48414,-1.43028 -6.18353,1.70088 -11.34811,4.74175 -8.3971,4.94416 -18.00796,1.49936 -20.78696,-8.70914 10.45061,-1.86046 13.6921,-2.445 23.28004,-3.85317 4.5391,-0.74142 10.311,-1.4075 9.5344,-5.9755 -1.55029,-10.50345 -13.995,-14.854 -23.187,-13.474 z m 0.98841,4.8738 c 5.841,-0.84599 11.90435,1.43886 13.85786,7.16389 0.23771,1.5306 -0.86139,2.67701 -2.00076,2.89001 -8.29983,1.34134 -13.00907,2.10498 -23.2487,3.6012 1.2342,-9.061 5.24119,-12.37522 11.3917,-13.6551 z"
         stroke-width="1.0928"
         id="path34-1"
         sodipodi:nodetypes="czzcsccccccccccc"
         style="fill:#bc07bc" />
      <path
         d="m 197.198,166.78 c -2.1061,5.3702 -6.145,7.5332 -11.372,7.5813 -2.3905,0 -4.9347,-0.78545 -7.6325,-2.3564 -2.6637,-1.5709 -4.8322,-3.7223 -6.5056,-6.4543 -1.6392,-2.732 -3.2272,-6.1128 -4.7639,-10.143 -0.17074,-0.44394 -0.42688,-0.66593 -0.76838,-0.66593 h -0.35857 c -2.5612,0.51226 -5.4298,0.76839 -8.6058,0.76839 -7.7862,0 -14.599,-1.605 -20.439,-4.8151 -5.8396,-3.2442 -10.484,-7.974 -13.933,-14.189 -3.4491,-6.2153 -5.1737,-13.165 -5.1737,-20.849 0,-4.6444 1.3318,-10.057 3.9955,-16.238 2.6637,-6.2153 6.9154,-11.269 12.755,-15.163 5.8396,-3.894 13.148,-5.8396 21.924,-5.8396 11.133,0 19.773,2.9369 25.92,8.8107 8.6741,8.3667 13.011,18.424 13.011,30.171 0,7.2398 -1.7587,14.121 -5.2762,20.644 -3.5174,6.4885 -8.0594,10.945 -13.626,13.37 -0.99035,0.4781 -1.4855,0.99035 -1.4855,1.5367 0,0.47811 0.78544,2.3734 2.3563,5.686 1.605,3.3125 3.3979,5.7884 5.3786,7.4276 1.9807,1.6392 4.2004,2.4588 6.6592,2.4588 2.4907,-0.29263 4.7508,-0.8018 7.9398,-1.7416 z m -52.71,-19.875 v -1.3831 c 0,-3.2101 1.0416,-5.8738 3.1247,-7.9911 2.1173,-2.1514 4.8493,-3.2272 8.196,-3.2272 3.415,0 6.5226,1.0074 9.3229,3.0223 2.8344,2.0148 5.1908,4.8151 7.069,8.4009 0.17075,0.37565 0.37565,0.56348 0.6147,0.56348 0.58055,0 1.9124,-1.0586 3.9956,-3.176 2.1173,-2.1173 3.8931,-5.2591 5.3274,-9.4254 1.4684,-4.2004 2.2027,-9.1351 2.2027,-14.804 0,-11.133 -2.6466,-19.858 -7.9399,-26.176 -5.2932,-6.3177 -11.987,-9.4766 -20.08,-9.4766 -7.7862,0 -14.326,3.0735 -19.619,9.2205 -5.2932,6.147 -7.9399,13.984 -7.9399,23.512 0,5.703 0.49518,10.569 1.4855,14.599 1.0245,3.9955 2.4588,7.2398 4.3029,9.7327 1.8441,2.4929 3.8419,4.3541 5.9933,5.5835 2.1856,1.2294 3.4492,1.8441 3.7906,1.8441 0.32143,0.18264 0.10425,-0.52521 0.15368,-0.8196 z m 19.824,2.1002 c 0,-0.92205 -1.0586,-2.7832 -3.176,-5.5835 -2.0832,-2.8003 -4.5249,-4.2004 -7.3252,-4.2004 -3.4833,0 -5.2249,2.0148 -5.2249,6.0445 0,1.4002 0.15368,2.4076 0.46102,3.0223 0.3415,0.58055 1.1782,1.0245 2.51,1.3318 1.366,0.27319 3.654,0.40979 6.8641,0.40979 1.9807,0 3.6711,-0.11951 5.0713,-0.35857 0.5464,-0.0683 0.8196,-0.29023 0.8196,-0.66592 z"
         stroke-width="1.0928"
         id="path40" />
      <path
         d="m 114.7634,80.061579 c -0.19201,36.106861 0.0632,40.334451 -0.1538,68.164421 -0.0283,3.6325 0.0526,6.72514 -1.91473,6.7446 -4.00434,0.0396 -31.716017,-35.2519 -45.921302,-52.70246 -0.285261,50.97048 0.74956,47.43167 -9.373205,52.45152 0.03069,-32.54568 0.199758,-34.29367 0.02406,-66.090476 0.04836,-6.175952 2.7087,-7.874484 5.959,-7.906784 0.99035,0 2.5442,0.84522 3.9785,2.4503 18.875155,26.39639 18.33332,24.52114 36.738397,48.73684 0.19451,-49.653362 -1.17872,-47.070729 10.66308,-51.847961 z"
         stroke-width="1.0928"
         id="path42"
         sodipodi:nodetypes="cssccccccc" />
    </g>
    <g
       id="g999"
       transform="translate(-8,-2)">
      <path
         transform="matrix(1.0928,0,0,1.0928,-5.445,5.076)"
         d="m 176.72,46.124 a 6.7732,6.7732 0 1 1 6.6833,-6.9131 6.6733,6.6733 0 0 1 -6.6833,6.9131 z"
         filter="url(#filter1014)"
         stroke-width="0.999"
         id="path30"
         style="fill:#bc07bc" />
      <path
         transform="matrix(1.0928,0,0,1.0928,-5.445,5.076)"
         d="m 148.75,55.335 c 12.848,-5.9789 27.148,-4.8625 34.753,3.5088 5.3294,5.8668 11.496,20.708 2.6698,30.617 3.7092,-19.53 -7.9167,-30.274 -19.364,-31.822 -13.422,-1.3781 -25.136,9.0503 -25.322,22.541 -0.39158,8.7443 2.6237,17.3 8.4116,23.866 6.3847,7.6548 14.274,11.832 20.779,18.062 -26.887,-5.1602 -36.267,-29.46 -36.184,-42.318 0.29121,-10.09 2.9065,-19.977 7.6424,-28.891 3.3958,-6.3906 12.637,-19.662 17.397,-25.113 8.5654,-9.8113 11.828,-12.839 15.49,-25.786 3.0878,11.653 -1.9536,20.664 -7.0929,26.673 -7.651,8.9463 -15.966,18.261 -19.181,28.661 z"
         fill="#bc07bc"
         filter="url(#filter1002)"
         stroke-width="0.999"
         id="path44" />
    </g>
  </g>
</svg>
