<?xml version="1.0" encoding="UTF-8" standalone="no"?>
<svg
   id="Layer_1"
   data-name="Layer 1"
   viewBox="0 0 300 180"
   version="1.1"
   sodipodi:docname="new-eNQue.svg"
   inkscape:version="1.2 (dc2aedaf03, 2022-05-15)"
   width="300"
   height="180"
   inkscape:export-filename="C:\Users\brian\Code\nq\static\images\eNQue.png"
   inkscape:export-xdpi="96"
   inkscape:export-ydpi="96"
   xmlns:inkscape="http://www.inkscape.org/namespaces/inkscape"
   xmlns:sodipodi="http://sodipodi.sourceforge.net/DTD/sodipodi-0.dtd"
   xmlns="http://www.w3.org/2000/svg"
   xmlns:svg="http://www.w3.org/2000/svg"
   xmlns:rdf="http://www.w3.org/1999/02/22-rdf-syntax-ns#"
   xmlns:cc="http://creativecommons.org/ns#"
   xmlns:dc="http://purl.org/dc/elements/1.1/">
  <metadata
     id="metadata15">
    <rdf:RDF>
      <cc:Work
         rdf:about="">
        <dc:format>image/svg+xml</dc:format>
        <dc:type
           rdf:resource="http://purl.org/dc/dcmitype/StillImage" />
      </cc:Work>
    </rdf:RDF>
  </metadata>
  <sodipodi:namedview
     pagecolor="#ffffff"
     bordercolor="#666666"
     borderopacity="1"
     objecttolerance="10"
     gridtolerance="10"
     guidetolerance="10"
     inkscape:pageopacity="0"
     inkscape:pageshadow="2"
     inkscape:window-width="3440"
     inkscape:window-height="1369"
     id="namedview13"
     showgrid="false"
     inkscape:zoom="1.6"
     inkscape:cx="-0.625"
     inkscape:cy="205.625"
     inkscape:window-x="-8"
     inkscape:window-y="-8"
     inkscape:window-maximized="1"
     inkscape:current-layer="g78"
     inkscape:document-rotation="0"
     fit-margin-top="0"
     fit-margin-left="0"
     fit-margin-right="0"
     fit-margin-bottom="0"
     inkscape:showpageshadow="2"
     inkscape:pagecheckerboard="0"
     inkscape:deskcolor="#d1d1d1" />
  <defs
     id="defs4">
    <style
       id="style2">.cls-1{font-size:76.63px;font-family:LivingstonDemoSerif, Livingston Demo;}</style>
    <filter
       style="color-interpolation-filters:sRGB"
       inkscape:label="Drop Shadow"
       id="filter966"
       x="-0.43672368"
       y="-0.43672368"
       width="1.8734474"
       height="1.8734474">
      <feFlood
         flood-opacity="0.498039"
         flood-color="rgb(0,0,0)"
         result="flood"
         id="feFlood956" />
      <feComposite
         in="flood"
         in2="SourceGraphic"
         operator="in"
         result="composite1"
         id="feComposite958" />
      <feGaussianBlur
         in="composite1"
         stdDeviation="7"
         result="blur"
         id="feGaussianBlur960" />
      <feOffset
         dx="0"
         dy="0"
         result="offset"
         id="feOffset962" />
      <feComposite
         in="SourceGraphic"
         in2="offset"
         operator="over"
         result="composite2"
         id="feComposite964" />
    </filter>
    <filter
       style="color-interpolation-filters:sRGB"
       inkscape:label="Drop Shadow"
       id="filter978"
       x="-0.32098871"
       y="-0.2463318"
       width="1.6419774"
       height="1.4926636">
      <feFlood
         flood-opacity="0.498039"
         flood-color="rgb(0,0,0)"
         result="flood"
         id="feFlood968" />
      <feComposite
         in="flood"
         in2="SourceGraphic"
         operator="in"
         result="composite1"
         id="feComposite970" />
      <feGaussianBlur
         in="composite1"
         stdDeviation="7"
         result="blur"
         id="feGaussianBlur972" />
      <feOffset
         dx="0"
         dy="0"
         result="offset"
         id="feOffset974" />
      <feComposite
         in="SourceGraphic"
         in2="offset"
         operator="over"
         result="composite2"
         id="feComposite976" />
    </filter>
    <filter
       style="color-interpolation-filters:sRGB"
       inkscape:label="Drop Shadow"
       id="filter990"
       x="-0.26006562"
       y="-0.23931842"
       width="1.5201312"
       height="1.4786367">
      <feFlood
         flood-opacity="0.498039"
         flood-color="rgb(0,0,0)"
         result="flood"
         id="feFlood980" />
      <feComposite
         in="flood"
         in2="SourceGraphic"
         operator="in"
         result="composite1"
         id="feComposite982" />
      <feGaussianBlur
         in="composite1"
         stdDeviation="7"
         result="blur"
         id="feGaussianBlur984" />
      <feOffset
         dx="0"
         dy="0"
         result="offset"
         id="feOffset986" />
      <feComposite
         in="SourceGraphic"
         in2="offset"
         operator="over"
         result="composite2"
         id="feComposite988" />
    </filter>
    <filter
       style="color-interpolation-filters:sRGB"
       inkscape:label="Drop Shadow"
       id="filter1002"
       x="-0.2993539"
       y="-0.13758338"
       width="1.5987078"
       height="1.2751668">
      <feFlood
         flood-opacity="0.498039"
         flood-color="rgb(0,0,0)"
         result="flood"
         id="feFlood992" />
      <feComposite
         in="flood"
         in2="SourceGraphic"
         operator="in"
         result="composite1"
         id="feComposite994" />
      <feGaussianBlur
         in="composite1"
         stdDeviation="7"
         result="blur"
         id="feGaussianBlur996" />
      <feOffset
         dx="0"
         dy="0"
         result="offset"
         id="feOffset998" />
      <feComposite
         in="SourceGraphic"
         in2="offset"
         operator="over"
         result="composite2"
         id="feComposite1000" />
    </filter>
    <filter
       style="color-interpolation-filters:sRGB"
       inkscape:label="Drop Shadow"
       id="filter1014"
       x="-1.2399171"
       y="-1.2401782"
       width="3.4798342"
       height="3.4803565">
      <feFlood
         flood-opacity="0.498039"
         flood-color="rgb(0,0,0)"
         result="flood"
         id="feFlood1004" />
      <feComposite
         in="flood"
         in2="SourceGraphic"
         operator="in"
         result="composite1"
         id="feComposite1006" />
      <feGaussianBlur
         in="composite1"
         stdDeviation="7"
         result="blur"
         id="feGaussianBlur1008" />
      <feOffset
         dx="0"
         dy="0"
         result="offset"
         id="feOffset1010" />
      <feComposite
         in="SourceGraphic"
         in2="offset"
         operator="over"
         result="composite2"
         id="feComposite1012" />
    </filter>
    <filter
       style="color-interpolation-filters:sRGB"
       inkscape:label="Drop Shadow"
       id="filter1026"
       x="-0.42405277"
       y="-0.44200662"
       width="1.8481055"
       height="1.8840133">
      <feFlood
         flood-opacity="0.498039"
         flood-color="rgb(0,0,0)"
         result="flood"
         id="feFlood1016" />
      <feComposite
         in="flood"
         in2="SourceGraphic"
         operator="in"
         result="composite1"
         id="feComposite1018" />
      <feGaussianBlur
         in="composite1"
         stdDeviation="7"
         result="blur"
         id="feGaussianBlur1020" />
      <feOffset
         dx="0"
         dy="0"
         result="offset"
         id="feOffset1022" />
      <feComposite
         in="SourceGraphic"
         in2="offset"
         operator="over"
         result="composite2"
         id="feComposite1024" />
    </filter>
    <filter
       style="color-interpolation-filters:sRGB"
       inkscape:label="Drop Shadow"
       id="filter1038"
       x="-0.43672368"
       y="-0.43672368"
       width="1.8734474"
       height="1.8734474">
      <feFlood
         flood-opacity="0.498039"
         flood-color="rgb(0,0,0)"
         result="flood"
         id="feFlood1028" />
      <feComposite
         in="flood"
         in2="SourceGraphic"
         operator="in"
         result="composite1"
         id="feComposite1030" />
      <feGaussianBlur
         in="composite1"
         stdDeviation="7"
         result="blur"
         id="feGaussianBlur1032" />
      <feOffset
         dx="0"
         dy="0"
         result="offset"
         id="feOffset1034" />
      <feComposite
         in="SourceGraphic"
         in2="offset"
         operator="over"
         result="composite2"
         id="feComposite1036" />
    </filter>
    <filter
       style="color-interpolation-filters:sRGB"
       inkscape:label="Drop Shadow"
       id="filter966-0"
       x="-0.43672368"
       y="-0.43672368"
       width="1.8734474"
       height="1.8734474">
      <feFlood
         flood-opacity="0.498039"
         flood-color="rgb(0,0,0)"
         result="flood"
         id="feFlood956-1" />
      <feComposite
         in="flood"
         in2="SourceGraphic"
         operator="in"
         result="composite1"
         id="feComposite958-4" />
      <feGaussianBlur
         in="composite1"
         stdDeviation="7"
         result="blur"
         id="feGaussianBlur960-9" />
      <feOffset
         dx="0"
         dy="0"
         result="offset"
         id="feOffset962-6" />
      <feComposite
         in="SourceGraphic"
         in2="offset"
         operator="over"
         result="composite2"
         id="feComposite964-8" />
    </filter>
    <filter
       style="color-interpolation-filters:sRGB"
       inkscape:label="Drop Shadow"
       id="filter966-7"
       x="-0.43672368"
       y="-0.43672368"
       width="1.8734474"
       height="1.8734474">
      <feFlood
         flood-opacity="0.498039"
         flood-color="rgb(0,0,0)"
         result="flood"
         id="feFlood956-2" />
      <feComposite
         in="flood"
         in2="SourceGraphic"
         operator="in"
         result="composite1"
         id="feComposite958-3" />
      <feGaussianBlur
         in="composite1"
         stdDeviation="7"
         result="blur"
         id="feGaussianBlur960-4" />
      <feOffset
         dx="0"
         dy="0"
         result="offset"
         id="feOffset962-1" />
      <feComposite
         in="SourceGraphic"
         in2="offset"
         operator="over"
         result="composite2"
         id="feComposite964-85" />
    </filter>
  </defs>
  <g
     id="g78"
     transform="translate(10.339719,16.8)">
    <text
       xml:space="preserve"
       style="font-style:normal;font-variant:normal;font-weight:normal;font-stretch:normal;font-size:74.6667px;font-family:'Poor Richard';-inkscape-font-specification:'Poor Richard';fill:#666666;fill-opacity:1;stroke:none"
       x="45.285282"
       y="208.5125"
       id="text14077" />
    <g
       id="g15625"
       transform="translate(2.6076486)">
      <path
         d="m 176.72258,46.12383 a 6.77322,6.77322 0 1 1 6.68331,-6.91308 6.67332,6.67332 0 0 1 -6.68331,6.91308 z"
         id="path10"
         style="fill:#bc07bc;fill-opacity:1;stroke-width:0.999;filter:url(#filter1014)"
         inkscape:export-xdpi="96"
         inkscape:export-ydpi="96"
         transform="matrix(1.092798,0,0,1.092798,-18.392913,-11.723779)" />
      <path
         id="path11153-8-9"
         style="font-size:96px;font-family:'Poor Richard';-inkscape-font-specification:'Poor Richard';fill:#bc07bc;fill-opacity:1;stroke-width:1.17372"
         d="m 216.56109,107.71261 c -0.0836,5.44878 0.39393,10.98458 -0.17786,17.30452 -0.12167,1.64795 -1.97313,3.78398 -5.31613,6.02908 -2.15982,1.45049 -3.82271,2.25309 -5.85945,2.28327 -1.90729,0 -3.55784,-0.58687 -4.95162,-1.76059 -1.35713,-1.17371 -2.01921,-2.6593 -2.03569,-4.45649 l -0.12969,-14.13997 c -0.51781,-9.56273 -5.58501,-12.69155 -11.21608,-12.68337 5.70895,8.443 1.8636,19.53268 3.20307,29.90437 0.3301,2.01734 1.48549,3.85128 3.46614,5.50183 2.01736,1.65056 4.36479,2.47582 7.04234,2.47582 3.44781,0 6.52884,-0.78859 9.24306,-2.36578 1.07713,-0.68055 2.14809,-1.38624 3.08792,-2.04486 1.39545,-1.00347 2.14719,-1.78788 3.49286,-2.9914 0.2405,2.24926 0.0249,2.27046 0.16354,2.59712 0.77736,5.59372 6.40855,4.73614 10.44969,4.73347 -5.15724,-9.35791 -2.34058,-14.99269 -2.06203,-26.11839 0.57038,-12.220434 -1.2437,-11.99252 -4.26573,-11.992814 -3.02203,-3.14e-4 -3.96407,1.072614 -4.13434,7.724184 z"
         sodipodi:nodetypes="ccsccsccccscccccczc" />
      <path
         d="m 18.909416,99.33485 c -10.5619421,2.23002 -19.77815033,11.46811 -18.31796564,21.663 0.88063464,5.49633 3.62918984,9.91522 8.24564414,13.25664 4.6164545,3.34144 9.8414635,4.54481 15.6749945,3.61015 3.94522,-0.63211 7.744461,-1.96565 11.060205,-4.46976 2.23521,-1.68807 4.611415,-5.28971 8.943635,-5.79824 -1.388928,-0.0576 -3.738982,-1.72228 -6.519384,-1.23573 -2.690143,0.47074 -7.153879,3.7193 -8.237792,4.24194 -9.807346,3.95862 -18.36336,1.74733 -21.1417839,-8.46123 8.6098419,-1.77281 14.8826649,-1.90533 23.9448839,-3.35732 4.539051,-0.74142 10.31118,-1.40749 9.534367,-5.97554 C 39.932338,101.16547 28.101085,97.95496 18.909411,99.33481 Z m 0.988409,4.87382 c 5.840995,-0.84599 12.672301,1.58854 13.639699,7.20459 0.237714,1.53063 -0.643534,2.63626 -1.782891,2.8493 -7.642443,1.42898 -13.937003,2.65222 -23.8261739,3.97309 0.8622973,-9.06096 6.1283729,-13.18097 11.9693659,-14.02698 z"
         style="font-family:'Poor Richard';-inkscape-font-specification:'Poor Richard';fill:#bc07bc;fill-opacity:1;stroke-width:1.09279"
         id="path14917"
         sodipodi:nodetypes="ccssscsccccccscscs" />
      <path
         d="m 248.0602,99.33485 c -10.56194,2.23002 -19.77815,11.46811 -18.31796,21.663 0.88063,5.49633 3.6292,9.91522 8.24564,13.25664 4.61646,3.34144 9.84146,4.54481 15.675,3.61015 3.94522,-0.63211 7.74446,-1.96565 11.06021,-4.46976 2.23521,-1.68807 4.61141,-5.28971 8.94363,-5.79824 -1.38894,-0.0576 -3.73899,-1.72228 -6.51938,-1.23573 -2.69016,0.47074 -7.15389,3.7193 -8.2378,4.24194 -9.80735,3.95862 -18.36336,1.74733 -21.14178,-8.46123 8.60983,-1.77281 14.88267,-1.90533 23.94489,-3.35732 4.53904,-0.74142 10.31117,-1.40749 9.53435,-5.97554 -2.16388,-11.64329 -13.99512,-14.8538 -23.1868,-13.47395 z m 0.98842,4.87382 c 5.84099,-0.84599 12.6723,1.58854 13.63968,7.20459 0.23772,1.53063 -0.64352,2.63626 -1.78288,2.8493 -7.64244,1.42898 -13.937,2.65222 -23.82617,3.97309 0.8623,-9.06096 6.12837,-13.18097 11.96937,-14.02698 z"
         style="font-family:'Poor Richard';-inkscape-font-specification:'Poor Richard';fill:#bc07bc;fill-opacity:1;stroke-width:1.09279"
         id="path14917-8"
         sodipodi:nodetypes="ccssscsccccccscscs" />
      <path
         d="m 184.2487,149.98131 c -2.10614,5.37022 -6.14501,7.53318 -11.37193,7.58128 -2.3905,0 -4.93467,-0.78545 -7.63251,-2.35635 -2.6637,-1.57089 -4.83222,-3.72234 -6.50557,-6.45433 -1.6392,-2.732 -3.22716,-6.11285 -4.76391,-10.14254 -0.17074,-0.44394 -0.42688,-0.66593 -0.76838,-0.66593 h -0.35857 c -2.56124,0.51226 -5.42983,0.76839 -8.60578,0.76839 -7.78619,0 -14.59911,-1.60505 -20.43874,-4.81514 -5.83965,-3.24425 -10.48403,-7.97402 -13.93318,-14.18932 -3.44914,-6.21528 -5.1737,-13.16478 -5.1737,-20.848524 0,-4.644392 1.33184,-10.057162 3.99553,-16.238301 2.6637,-6.215289 6.91536,-11.26948 12.755,-15.162573 5.83964,-3.893093 13.14772,-5.839639 21.92426,-5.839639 11.13288,0 19.77282,2.936894 25.9198,8.810683 8.67409,8.366735 13.01113,18.423898 13.01113,30.171474 0,7.23979 -1.75871,14.12099 -5.27616,20.64363 -3.51744,6.48849 -8.05939,10.94506 -13.62583,13.36971 -0.99035,0.4781 -1.48552,0.99035 -1.48552,1.53674 0,0.47811 0.78544,2.37343 2.35634,5.68597 1.60505,3.31254 3.39793,5.78842 5.37862,7.42762 1.9807,1.63919 4.20044,2.45879 6.65925,2.45879 2.4907,-0.29263 4.75075,-0.8018 7.93985,-1.74164 z m -52.71043,-19.87527 v -1.38307 c 0,-3.2101 1.04157,-5.8738 3.12471,-7.99109 2.1173,-2.15145 4.84929,-3.22717 8.19599,-3.22717 3.415,0 6.52264,1.00742 9.32293,3.02226 2.83445,2.01485 5.19079,4.81514 7.06904,8.40089 0.17075,0.37565 0.37565,0.56348 0.6147,0.56348 0.58055,0 1.9124,-1.05865 3.99555,-3.17595 2.11729,-2.11728 3.89308,-5.25908 5.32738,-9.42538 1.46845,-4.20044 2.20268,-9.13511 2.20268,-14.80401 0,-11.132871 -2.64662,-19.858175 -7.93987,-26.175913 -5.29324,-6.317739 -11.98663,-9.476613 -20.08016,-9.476613 -7.78619,0 -14.32589,3.073495 -19.61914,9.220483 -5.29323,6.14699 -7.93986,13.984406 -7.93986,23.512238 0,5.703035 0.49518,10.569405 1.48553,14.599095 1.02449,3.99554 2.45879,7.23979 4.30289,9.73273 1.8441,2.49294 3.84186,4.35412 5.9933,5.58353 2.1856,1.22939 3.44915,1.84409 3.79065,1.84409 0.32143,0.18264 0.10425,-0.52521 0.15368,-0.8196 z m 19.82404,2.10022 c 0,-0.92205 -1.05865,-2.78322 -3.17595,-5.58351 -2.08315,-2.8003 -4.52486,-4.20045 -7.32516,-4.20045 -3.48329,0 -5.22494,2.01485 -5.22494,6.04454 0,1.40015 0.15368,2.40756 0.46102,3.02227 0.3415,0.58055 1.17818,1.02449 2.51003,1.33185 1.36599,0.27319 3.65404,0.40979 6.86413,0.40979 1.98071,0 3.67112,-0.11951 5.07127,-0.35857 0.5464,-0.0683 0.8196,-0.29023 0.8196,-0.66592 z"
         style="fill:#808080;stroke-width:1.09279"
         id="path15480"
         sodipodi:nodetypes="cccccscscsscsscsccscscccscsccsccssssscscccscssccscs" />
      <path
         d="m 102.73279,64.022832 c -5.320442,11.737701 -1.08427,40.939938 -1.08427,61.618068 -0.0506,3.63231 0.14704,12.49388 -1.26225,12.53003 -1.409289,0.0362 -5.631235,-6.15252 -6.378556,-7.16058 L 55.332676,79.982465 c -1.338291,-1.676879 -1.006804,0.565892 -1.015965,1.758727 0.808494,9.21979 5.877239,54.614528 -6.215289,56.091268 5.20252,-16.06581 -0.06318,-62.518853 0.549997,-69.157864 0.311334,-3.370903 0.536726,-4.718753 3.787044,-4.75114 0.990349,0 2.544176,0.845217 3.978474,2.450264 1.468447,1.605047 6.437258,8.076455 14.906442,19.414234 l 22.59019,30.222696 c 0.37565,0.51225 0.734218,0.76838 1.075718,0.76838 0.751299,0 1.126947,-0.92205 1.126947,-2.76615 1.531593,-14.081042 -5.872309,-48.338242 6.616556,-49.990048 z"
         style="font-size:96px;font-family:'Freestyle Script';-inkscape-font-specification:'Freestyle Script';fill:#808080;stroke-width:1.09279"
         id="path14066-5"
         sodipodi:nodetypes="cczccccsccccscc" />
      <path
         d="m 148.75058,55.33461 c 12.84833,-5.978933 27.14824,-4.862547 34.75271,3.50883 5.32937,5.866829 11.4957,20.708484 2.66983,30.61701 3.70919,-19.52952 -7.91671,-30.274015 -19.36358,-31.82197 -13.42164,-1.378089 -25.1364,9.050305 -25.32169,22.54126 -0.39158,8.744339 2.62374,17.2997 8.41158,23.86611 6.38474,7.6548 14.27439,11.83237 20.7792,18.06192 -26.88654,-5.16023 -36.26655,-29.460249 -36.18378,-42.31764 0.29121,-10.090008 2.90649,-19.976783 7.64235,-28.89108 3.39585,-6.390597 12.63745,-19.661539 17.39681,-25.11315 8.56544,-9.811282 11.8283,-12.838688 15.49027,-25.7859 3.08781,11.653333 -1.95356,20.663924 -7.0929,26.6733 -7.65102,8.946255 -15.96635,18.260683 -19.1808,28.66131 z"
         id="path8"
         style="fill:#bc07bc;fill-opacity:1;stroke-width:0.999;filter:url(#filter1002)"
         inkscape:export-xdpi="96"
         inkscape:export-ydpi="96"
         sodipodi:nodetypes="cscccccccscsc"
         transform="matrix(1.092798,0,0,1.092798,-18.392913,-11.723779)" />
    </g>
    <g
       id="g15629"
       transform="matrix(1.2133916,0,0,1.2133916,188.68763,74.624437)">
      <path
         id="path11153-2"
         style="font-size:96px;font-family:'Poor Richard';-inkscape-font-specification:'Poor Richard';fill:#808080"
         d="m -102.29751,-32.088289 c 0.0712,-4.642309 -0.33564,-9.358743 0.15151,-14.743278 0.10367,-1.404031 1.68108,-3.223909 4.529301,-5.136719 1.84014,-1.235805 3.2569,-1.919609 4.99219,-1.945312 1.62499,0 3.03125,0.500001 4.21875,1.5 1.15624,0.999999 1.72033,2.26569 1.73437,3.796875 l 0.11049,12.047112 c 0.441179,8.147359 4.758369,10.81309 9.555989,10.806111 -4.86397,-7.193347 -1.58777,-16.641646 -2.72898,-25.478228 -0.28125,-1.718749 -1.26563,-3.281252 -2.95312,-4.6875 -1.71875,-1.406249 -3.718759,-2.109375 -5.999999,-2.109375 -2.9375,0 -5.56251,0.671876 -7.875,2.015625 -0.91771,0.579818 -1.83014,1.18106 -2.63086,1.742187 -1.188931,0.854956 -1.829401,1.523262 -2.975891,2.548657 -0.20491,-1.916351 -0.0212,-1.934419 -0.13935,-2.212719 -0.6623,-4.765803 -5.46001,-4.035143 -8.90302,-4.032876 4.39391,7.972847 1.99415,12.773623 1.75682,22.252615 -0.48595,10.411674 1.05962,10.217494 3.63436,10.217761 2.57474,2.67e-4 3.37735,-0.913859 3.52244,-6.580936 z"
         sodipodi:nodetypes="ccsccsccccscccccczc" />
      <path
         d="m -133.2878,-23.957693 c -5.83432,-0.135189 -7.33476,-0.806394 -10.26866,-2.419181 -2.9339,-1.629945 -5.2673,-4.006236 -7.00018,-7.128869 -1.73289,-3.122631 -2.59933,-6.614142 -2.59933,-10.474538 0,-2.333395 0.66913,-5.052832 2.0074,-8.158305 1.33827,-3.122632 3.47436,-5.661914 6.40826,-7.617848 2.9339,-1.955934 6.60556,-2.933901 11.01499,-2.933901 5.59329,0 9.93409,1.475529 13.0224,4.426587 4.35796,4.203542 6.53694,9.256374 6.53694,15.15849 0,3.637351 -0.27227,7.097645 -4.42645,12.252955 -4.15419,5.155309 -8.86106,7.029799 -14.69537,6.89461 z m 12.53341,-10.963526 c 0.73777,-2.11035 1.10665,-4.589584 1.10665,-7.437698 0,-5.593285 -1.32969,-9.976976 -3.98908,-13.151079 -2.65938,-3.174103 -6.02221,-4.761157 -10.0885,-4.761157 -3.91187,0 -7.19749,1.544158 -9.85687,4.632475 -2.65939,3.088316 -3.98908,7.025922 -3.98908,11.812813 0,2.865271 -0.0717,5.347044 2.14153,9.518519 2.21319,4.171472 6.65113,7.41881 11.74792,7.444258 5.09679,0.02548 11.06137,-2.736896 12.92743,-8.058131 z"
         style="fill:#808080;stroke-width:0.549034"
         id="path15480-5"
         sodipodi:nodetypes="zcsscsscszzcssssszzc" />
    </g>
  </g>
</svg>
