<?xml version="1.0" encoding="UTF-8" standalone="no"?>
<svg
   viewBox="0 0 16 6"
   version="1.1"
   id="svg4"
   sodipodi:docname="small.svg"
   inkscape:version="1.2 (dc2aedaf03, 2022-05-15)"
   width="16"
   height="6"
   xmlns:inkscape="http://www.inkscape.org/namespaces/inkscape"
   xmlns:sodipodi="http://sodipodi.sourceforge.net/DTD/sodipodi-0.dtd"
   xmlns="http://www.w3.org/2000/svg"
   xmlns:svg="http://www.w3.org/2000/svg">
  <defs
     id="defs8" />
  <sodipodi:namedview
     id="namedview6"
     pagecolor="#ffffff"
     bordercolor="#000000"
     borderopacity="0.25"
     inkscape:showpageshadow="2"
     inkscape:pageopacity="0.0"
     inkscape:pagecheckerboard="true"
     inkscape:deskcolor="#d1d1d1"
     showgrid="false"
     inkscape:zoom="75.483649"
     inkscape:cx="7.6241677"
     inkscape:cy="4.5506544"
     inkscape:window-width="1845"
     inkscape:window-height="1230"
     inkscape:window-x="256"
     inkscape:window-y="76"
     inkscape:window-maximized="0"
     inkscape:current-layer="svg4" />
  <path
     id="rect220"
     style="fill:#ffffff;stroke-width:3.06005"
     d="m 0.58880061,3.058594 c -0.31138147,0 -0.56250005,0.251118 -0.56250005,0.5625 V 5.4375 C 0.02630056,5.748881 0.27741914,6 0.58880061,6 H 2.5927068 c 0.3113814,0 0.5625,-0.251119 0.5625,-0.5625 V 3.621094 c 0,-0.311382 -0.2511186,-0.5625 -0.5625,-0.5625 z"
     sodipodi:nodetypes="sssssssss" />
  <path
     id="rect222"
     style="fill:#ffffff;stroke-width:0.768346"
     d="m 10.621608,-0.01274844 c -0.329214,0 -0.594326,0.27663174 -0.594326,0.62015096 V 5.3666011 c 0,0.3435182 0.265112,0.620151 0.594326,0.620151 h 4.772029 c 0.329213,0 0.594325,-0.2766328 0.594325,-0.620151 V 0.60740149 c 0,-0.34351819 -0.265112,-0.62014993 -0.594325,-0.62014993 z m 0.01355,0.27472457 h 4.74299 c 0.203426,0 0.367823,0.17154087 0.367823,0.38380664 V 5.3282208 c 0,0.2122658 -0.164397,0.3838067 -0.367823,0.3838067 h -4.74299 c -0.203428,0 -0.367825,-0.1715409 -0.367825,-0.3838067 V 0.64578277 c 0,-0.21226577 0.164397,-0.38380664 0.367825,-0.38380664 z" />
  <path
     id="rect222-5"
     style="fill:#ffffff;stroke-width:0.556048"
     d="m 4.9481864,1.7395817 c -0.3066888,0 -0.5550413,0.2478409 -0.5550413,0.5560036 v 3.148412 C 4.3931451,5.7521593 4.6414976,6 4.9481864,6 H 8.2359998 C 8.5426886,6 8.7893437,5.7521593 8.7893437,5.4439973 v -3.148412 c 0,-0.3081627 -0.2466551,-0.5560036 -0.5533439,-0.5560036 z m 0.011881,0.2285415 h 3.2623528 c 0.1884416,0 0.3411721,0.1517591 0.3411721,0.3411064 V 5.430353 c 0,0.1893465 -0.1527305,0.3411055 -0.3411721,0.3411055 H 4.960068 c -0.1884416,0 -0.3394749,-0.151759 -0.3394749,-0.3411055 V 2.3092296 c 0,-0.1893473 0.1510333,-0.3411064 0.3394743,-0.3411064 z" />
</svg>
